<?xml version="1.0" encoding="UTF-8"?>
<svg id="Layer_2" data-name="Layer 2" xmlns="http://www.w3.org/2000/svg" viewBox="0 0 418 517">
  <path d="M135.76,87.31c0,2.54-2.1,4.59-4.68,4.59h-21.81c-2.63,0-4.73-2.05-4.73-4.59v-21.41c0-2.59,2.1-4.64,4.73-4.64h21.81c2.59,0,4.68,2.05,4.68,4.59v21.45Z" style="fill: #dd193e;"/>
  <path d="M113.59,87.98h-4.55l14.09-24,3.39,5.49c-7,3.48-12.31,11.55-12.93,18.51" style="fill: #fdbb30;"/>
  <path d="M117.6,87.98h-3.97c1.47-8.07,6.69-14.18,13.47-17.44l1.38,2.36c-5.8,2.81-10.12,8.56-10.88,15.08" style="fill: #fdbb30;"/>
  <path d="M117.69,87.98c.94-6.47,5.53-11.73,11.24-14.36l2.68,4.64c-3.75,1.74-6.74,5.13-7.67,9.05-.04,.22-.09,.45-.13,.67,0,0-6.11,0-6.11,0Z" style="fill: #fdbb30;"/>
  <g>
    <path d="M160.58,77.82h6.72l-2.26,10.42c-2.11,.73-4.16,1.1-6.14,1.1-2.58,0-4.58-.71-6.01-2.12s-2.15-3.38-2.15-5.91,.5-5.02,1.49-7.17,2.37-3.83,4.12-5.02,3.71-1.79,5.84-1.79c1.14,0,2.21,.1,3.21,.29s2.01,.51,3.03,.94l-.97,2.23c-.75-.33-1.56-.62-2.42-.86s-1.81-.37-2.85-.37c-1.65,0-3.15,.5-4.5,1.49s-2.4,2.38-3.16,4.15-1.13,3.76-1.13,5.96c0,1.86,.5,3.32,1.5,4.38s2.4,1.6,4.2,1.6c1.5,0,2.77-.19,3.81-.57l1.41-6.5h-4.23l.48-2.23Z" style="fill: #1463b4;"/>
    <path d="M175.62,89.04h-2.52l4.06-19.2h-5.95l.48-2.21h14.43l-.44,2.21h-5.98l-4.09,19.2Z" style="fill: #1463b4;"/>
    <path d="M196.87,69.54c-1.7,0-3.22,.47-4.56,1.42s-2.41,2.34-3.19,4.17-1.18,3.83-1.18,5.98c0,1.83,.48,3.28,1.43,4.37s2.26,1.63,3.93,1.63c1.36,0,2.93-.28,4.72-.83v2.18c-.84,.3-1.64,.52-2.4,.66s-1.68,.21-2.75,.21c-2.36,0-4.22-.73-5.57-2.19s-2.02-3.45-2.02-5.97,.52-4.92,1.55-7.11,2.41-3.86,4.15-5.02,3.71-1.73,5.9-1.73c1.92,0,3.62,.39,5.1,1.17l-1.01,2.07c-1.35-.67-2.71-1.01-4.09-1.01Z" style="fill: #1463b4;"/>
  </g>
  <g>
    <path d="M223.97,75.01c0,2.82-.49,5.35-1.48,7.58-.99,2.23-2.34,3.91-4.05,5.05-1.71,1.14-3.69,1.71-5.92,1.71-2.55,0-4.54-.74-5.98-2.21-1.43-1.47-2.15-3.51-2.15-6.12s.49-5.07,1.48-7.29,2.35-3.92,4.08-5.11c1.73-1.19,3.74-1.78,6.01-1.78,2.54,0,4.51,.72,5.91,2.15s2.09,3.45,2.09,6.03Zm-8.38-4.32c-1.21,0-2.31,.46-3.32,1.37-1.01,.91-1.8,2.17-2.37,3.76-.57,1.6-.86,3.33-.86,5.19,0,1.47,.33,2.57,1,3.32,.66,.75,1.6,1.12,2.8,1.12s2.31-.43,3.3-1.3,1.77-2.09,2.33-3.68,.84-3.37,.84-5.34c0-1.42-.32-2.51-.97-3.28-.65-.77-1.56-1.16-2.74-1.16Z" style="fill: #1463b4;"/>
    <path d="M243.35,89.04h-5.12l-5.33-16.54h-.09l-.06,.48c-.32,2.15-.65,4.08-.99,5.77l-2.17,10.29h-4.11l4.62-21.87h5.34l5.08,16.11h.06c.12-.76,.31-1.84,.58-3.25,.27-1.41,1.17-5.69,2.69-12.86h4.1l-4.62,21.87Z" style="fill: #1463b4;"/>
    <path d="M248.4,89.04l4.62-21.87h4.58l-3.83,18.04h7.66l-.81,3.83h-12.22Z" style="fill: #1463b4;"/>
    <path d="M264.06,89.04l4.67-21.87h4.56l-4.67,21.87h-4.56Z" style="fill: #1463b4;"/>
    <path d="M291.56,89.04h-5.12l-5.33-16.54h-.09l-.06,.48c-.32,2.15-.65,4.08-.99,5.77l-2.17,10.29h-4.11l4.62-21.87h5.34l5.09,16.11h.06c.12-.76,.31-1.84,.58-3.25,.27-1.41,1.17-5.69,2.69-12.86h4.1l-4.62,21.87Z" style="fill: #1463b4;"/>
    <path d="M308.83,89.04h-12.22l4.62-21.87h12.24l-.81,3.8h-7.66l-1,4.8h7.13l-.82,3.8h-7.13l-1.2,5.64h7.66l-.81,3.83Z" style="fill: #1463b4;"/>
  </g>
  <rect x="59.5" y="134" width="299" height="30.5" rx="4" ry="4" style="fill: none; stroke: #e7e7e7; stroke-miterlimit: 10; stroke-width: .5px;"/>
  <rect x="59.5" y="230" width="299" height="34" rx="4" ry="4" style="fill: #1463b4;"/>
  <rect x="59.5" y="307" width="299" height="34" rx="4" ry="4" style="fill: none; stroke: #1463b4; stroke-miterlimit: 10;"/>
  <rect x="59.5" y="173" width="299" height="30.5" rx="4" ry="4" style="fill: none; stroke: #e7e7e7; stroke-miterlimit: 10; stroke-width: .5px;"/>
  <g>
    <path d="M161.49,285.4v.3c0,.48-.07,.86-.22,1.15s-.41,.6-.79,.93c-.47,.41-.77,.69-.89,.84s-.2,.29-.25,.45-.07,.33-.07,.55c0,.39,.13,.7,.39,.92s.62,.33,1.1,.33c.31,0,.62-.04,.91-.11s.63-.21,1.01-.39l.35,.79c-.77,.38-1.54,.56-2.31,.56s-1.32-.18-1.75-.54-.63-.88-.63-1.54c0-.27,.03-.51,.1-.72s.17-.39,.29-.57,.27-.34,.45-.5,.37-.33,.58-.52c.39-.34,.66-.63,.78-.86s.19-.52,.19-.88v-.18h.77Zm.29-1.75c0,.53-.24,.79-.71,.79-.23,0-.41-.07-.53-.2s-.18-.33-.18-.59,.06-.44,.19-.58,.3-.21,.52-.21c.2,0,.37,.06,.5,.19s.21,.33,.21,.6Z" style="fill: #777;"/>
    <path d="M170.91,289.41h-1.14l-4.68-7.19h-.05c.06,.84,.09,1.62,.09,2.32v4.87h-.92v-8.57h1.12l4.67,7.16h.05c0-.11-.03-.44-.05-1.02s-.04-.98-.03-1.23v-4.92h.93v8.57Z" style="fill: #777;"/>
    <path d="M178.52,286.19c0,1.05-.26,1.86-.79,2.45s-1.26,.88-2.19,.88c-.57,0-1.08-.13-1.53-.4s-.79-.66-1.03-1.16-.36-1.09-.36-1.77c0-1.05,.26-1.86,.79-2.45s1.25-.88,2.18-.88,1.61,.3,2.14,.9,.79,1.41,.79,2.43Zm-4.89,0c0,.82,.16,1.45,.49,1.88s.81,.64,1.45,.64,1.12-.21,1.45-.64,.5-1.05,.5-1.88-.17-1.44-.5-1.86-.82-.64-1.46-.64-1.12,.21-1.44,.63-.49,1.04-.49,1.87Z" style="fill: #777;"/>
    <path d="M185.13,288.72c.17,0,.34-.01,.5-.04s.29-.05,.38-.08v.74c-.11,.05-.26,.09-.47,.13s-.39,.05-.55,.05c-1.24,0-1.86-.65-1.86-1.96v-3.82h-.92v-.47l.92-.4,.41-1.37h.56v1.49h1.86v.76h-1.86v3.78c0,.39,.09,.68,.28,.89s.44,.31,.76,.31Z" style="fill: #777;"/>
    <path d="M187.06,281.25c0-.22,.05-.39,.16-.49s.25-.16,.41-.16,.29,.05,.4,.16,.17,.27,.17,.49-.06,.38-.17,.49-.25,.16-.4,.16c-.16,0-.3-.05-.41-.16s-.16-.27-.16-.49Zm1.05,8.16h-.97v-6.42h.97v6.42Z" style="fill: #777;"/>
    <path d="M192.75,289.52c-.95,0-1.7-.29-2.25-.87s-.82-1.38-.82-2.41,.25-1.86,.76-2.47,1.19-.91,2.05-.91c.8,0,1.44,.26,1.91,.79s.7,1.23,.7,2.09v.62h-4.42c.02,.75,.21,1.33,.57,1.72s.87,.59,1.53,.59c.69,0,1.38-.14,2.05-.43v.87c-.34,.15-.67,.25-.98,.32s-.68,.1-1.11,.1Zm-.26-5.84c-.52,0-.93,.17-1.23,.5s-.49,.8-.54,1.39h3.36c0-.61-.14-1.08-.41-1.41s-.66-.49-1.17-.49Z" style="fill: #777;"/>
    <path d="M201.02,289.41v-4.15c0-.52-.12-.91-.36-1.17s-.61-.39-1.12-.39c-.67,0-1.16,.18-1.48,.54s-.47,.96-.47,1.8v3.37h-.97v-6.42h.79l.16,.88h.05c.2-.32,.48-.56,.84-.74s.76-.26,1.2-.26c.77,0,1.36,.19,1.75,.56s.59,.97,.59,1.79v4.19h-.97Z" style="fill: #777;"/>
    <path d="M206.56,289.52c-.95,0-1.7-.29-2.25-.87s-.82-1.38-.82-2.41,.25-1.86,.76-2.47,1.19-.91,2.05-.91c.8,0,1.44,.26,1.91,.79s.7,1.23,.7,2.09v.62h-4.42c.02,.75,.21,1.33,.57,1.72s.87,.59,1.53,.59c.69,0,1.38-.14,2.05-.43v.87c-.34,.15-.67,.25-.98,.32s-.68,.1-1.11,.1Zm-.26-5.84c-.52,0-.93,.17-1.23,.5s-.49,.8-.54,1.39h3.36c0-.61-.14-1.08-.41-1.41s-.66-.49-1.17-.49Z" style="fill: #777;"/>
    <path d="M214.58,287.66c0,.6-.22,1.06-.67,1.38s-1.07,.49-1.88,.49c-.85,0-1.52-.13-1.99-.4v-.9c.31,.16,.64,.28,.99,.37s.69,.13,1.02,.13c.51,0,.9-.08,1.17-.24s.41-.41,.41-.74c0-.25-.11-.46-.33-.64s-.64-.39-1.27-.63c-.6-.22-1.02-.42-1.27-.58s-.44-.35-.56-.57-.18-.46-.18-.76c0-.52,.21-.94,.64-1.24s1.01-.45,1.75-.45c.69,0,1.37,.14,2.03,.42l-.35,.79c-.64-.27-1.23-.4-1.75-.4-.46,0-.81,.07-1.04,.22s-.35,.34-.35,.6c0,.17,.04,.32,.13,.44s.23,.24,.42,.35,.57,.27,1.12,.47c.76,.28,1.28,.56,1.54,.84s.4,.63,.4,1.06Z" style="fill: #777;"/>
    <path d="M219.9,282.99v4.17c0,.52,.12,.91,.36,1.17s.61,.39,1.12,.39c.67,0,1.16-.18,1.47-.55s.47-.97,.47-1.8v-3.38h.97v6.42h-.8l-.14-.86h-.05c-.2,.32-.48,.56-.83,.73s-.76,.25-1.21,.25c-.78,0-1.37-.19-1.75-.56s-.58-.96-.58-1.78v-4.2h.98Z" style="fill: #777;"/>
    <path d="M230.35,287.66c0,.6-.22,1.06-.67,1.38s-1.07,.49-1.88,.49c-.85,0-1.52-.13-1.99-.4v-.9c.31,.16,.64,.28,.99,.37s.69,.13,1.02,.13c.51,0,.9-.08,1.17-.24s.41-.41,.41-.74c0-.25-.11-.46-.33-.64s-.64-.39-1.27-.63c-.6-.22-1.02-.42-1.27-.58s-.44-.35-.56-.57-.18-.46-.18-.76c0-.52,.21-.94,.64-1.24s1.01-.45,1.75-.45c.69,0,1.37,.14,2.03,.42l-.35,.79c-.64-.27-1.23-.4-1.75-.4-.46,0-.81,.07-1.04,.22s-.35,.34-.35,.6c0,.17,.04,.32,.13,.44s.23,.24,.42,.35,.57,.27,1.12,.47c.76,.28,1.28,.56,1.54,.84s.4,.63,.4,1.06Z" style="fill: #777;"/>
    <path d="M232.71,282.99v4.17c0,.52,.12,.91,.36,1.17s.61,.39,1.12,.39c.67,0,1.16-.18,1.47-.55s.47-.97,.47-1.8v-3.38h.97v6.42h-.8l-.14-.86h-.05c-.2,.32-.48,.56-.83,.73s-.76,.25-1.21,.25c-.78,0-1.37-.19-1.75-.56s-.58-.96-.58-1.78v-4.2h.98Z" style="fill: #777;"/>
    <path d="M242.96,289.41l-.19-.91h-.05c-.32,.4-.64,.67-.96,.82s-.72,.21-1.19,.21c-.64,0-1.14-.16-1.5-.49s-.54-.79-.54-1.4c0-1.3,1.04-1.98,3.11-2.04l1.09-.04v-.4c0-.5-.11-.88-.33-1.12s-.56-.36-1.04-.36c-.54,0-1.14,.16-1.82,.49l-.3-.74c.32-.17,.66-.31,1.04-.4s.75-.15,1.13-.15c.77,0,1.33,.17,1.7,.51s.55,.88,.55,1.63v4.38h-.72Zm-2.2-.69c.61,0,1.08-.17,1.43-.5s.52-.8,.52-1.39v-.58l-.97,.04c-.77,.03-1.33,.15-1.67,.36s-.51,.54-.51,.99c0,.35,.11,.62,.32,.8s.51,.28,.89,.28Z" style="fill: #777;"/>
    <path d="M248.47,282.87c.29,0,.54,.02,.77,.07l-.13,.9c-.27-.06-.5-.09-.7-.09-.52,0-.96,.21-1.33,.63s-.55,.95-.55,1.58v3.45h-.97v-6.42h.8l.11,1.19h.05c.24-.42,.53-.74,.86-.97s.71-.34,1.11-.34Z" style="fill: #777;"/>
    <path d="M250.22,281.25c0-.22,.05-.39,.16-.49s.25-.16,.41-.16,.29,.05,.4,.16,.17,.27,.17,.49-.06,.38-.17,.49-.25,.16-.4,.16c-.16,0-.3-.05-.41-.16s-.16-.27-.16-.49Zm1.05,8.16h-.97v-6.42h.97v6.42Z" style="fill: #777;"/>
    <path d="M258.73,286.19c0,1.05-.26,1.86-.79,2.45s-1.26,.88-2.19,.88c-.57,0-1.08-.13-1.53-.4s-.79-.66-1.03-1.16-.36-1.09-.36-1.77c0-1.05,.26-1.86,.79-2.45s1.25-.88,2.18-.88,1.61,.3,2.14,.9,.79,1.41,.79,2.43Zm-4.89,0c0,.82,.16,1.45,.49,1.88s.81,.64,1.45,.64,1.12-.21,1.45-.64,.5-1.05,.5-1.88-.17-1.44-.5-1.86-.82-.64-1.46-.64-1.12,.21-1.44,.63-.49,1.04-.49,1.87Z" style="fill: #777;"/>
    <path d="M260.96,287.05v-.32c0-.46,.07-.83,.21-1.13s.4-.61,.79-.93c.53-.45,.87-.79,1-1.01s.21-.5,.21-.82c0-.4-.13-.71-.38-.92s-.62-.33-1.1-.33c-.31,0-.61,.04-.9,.11s-.63,.2-1.01,.4l-.35-.79c.74-.39,1.51-.58,2.31-.58,.75,0,1.33,.18,1.74,.55s.62,.88,.62,1.55c0,.29-.04,.54-.11,.75s-.19,.42-.34,.62-.47,.5-.96,.93c-.39,.34-.66,.62-.78,.84s-.19,.52-.19,.89v.19h-.76Zm-.29,1.74c0-.53,.23-.8,.7-.8,.23,0,.4,.07,.52,.21s.18,.33,.18,.59-.06,.44-.19,.58-.3,.21-.52,.21c-.2,0-.37-.06-.5-.18s-.2-.33-.2-.61Z" style="fill: #777;"/>
  </g>
  <g>
    <path d="M182.22,321.61c-.94,0-1.68,.31-2.23,.94s-.82,1.49-.82,2.58,.26,1.99,.79,2.6,1.27,.92,2.25,.92c.6,0,1.28-.11,2.04-.32v.87c-.59,.22-1.33,.33-2.2,.33-1.26,0-2.24-.38-2.92-1.15s-1.03-1.85-1.03-3.26c0-.88,.17-1.66,.5-2.32s.81-1.18,1.43-1.54,1.36-.54,2.2-.54c.9,0,1.68,.16,2.36,.49l-.42,.86c-.65-.3-1.3-.46-1.95-.46Z" style="fill: #1463b4;"/>
    <path d="M188.76,322.87c.29,0,.54,.02,.77,.07l-.13,.9c-.27-.06-.5-.09-.7-.09-.52,0-.96,.21-1.33,.63s-.55,.95-.55,1.58v3.45h-.97v-6.42h.8l.11,1.19h.05c.24-.42,.53-.74,.86-.97s.71-.34,1.11-.34Z" style="fill: #1463b4;"/>
    <path d="M193.3,329.52c-.95,0-1.7-.29-2.25-.87s-.82-1.38-.82-2.41,.25-1.86,.76-2.47,1.19-.91,2.05-.91c.8,0,1.44,.26,1.91,.79s.7,1.23,.7,2.09v.62h-4.42c.02,.75,.21,1.33,.57,1.72s.87,.59,1.53,.59c.69,0,1.38-.14,2.05-.43v.87c-.34,.15-.67,.25-.98,.32s-.68,.1-1.11,.1Zm-.26-5.84c-.52,0-.93,.17-1.23,.5s-.49,.8-.54,1.39h3.36c0-.61-.14-1.08-.41-1.41s-.66-.49-1.17-.49Z" style="fill: #1463b4;"/>
    <path d="M201.12,329.41l-.19-.91h-.05c-.32,.4-.64,.67-.96,.82s-.72,.21-1.19,.21c-.64,0-1.14-.16-1.5-.49s-.54-.79-.54-1.4c0-1.3,1.04-1.98,3.11-2.04l1.09-.04v-.4c0-.5-.11-.88-.33-1.12s-.56-.36-1.04-.36c-.54,0-1.14,.16-1.82,.49l-.3-.74c.32-.17,.66-.31,1.04-.4s.75-.15,1.13-.15c.77,0,1.33,.17,1.7,.51s.55,.88,.55,1.63v4.38h-.72Zm-2.2-.69c.61,0,1.08-.17,1.43-.5s.52-.8,.52-1.39v-.58l-.97,.04c-.77,.03-1.33,.15-1.67,.36s-.51,.54-.51,.99c0,.35,.11,.62,.32,.8s.51,.28,.89,.28Z" style="fill: #1463b4;"/>
    <path d="M204.67,329.41h-.97v-9.12h.97v9.12Z" style="fill: #1463b4;"/>
    <path d="M212.14,326.19c0,1.05-.26,1.86-.79,2.45s-1.26,.88-2.19,.88c-.57,0-1.08-.13-1.53-.4s-.79-.66-1.03-1.16-.36-1.09-.36-1.77c0-1.05,.26-1.86,.79-2.45s1.25-.88,2.18-.88,1.61,.3,2.14,.9,.79,1.41,.79,2.43Zm-4.89,0c0,.82,.16,1.45,.49,1.88s.81,.64,1.45,.64,1.12-.21,1.45-.64,.5-1.05,.5-1.88-.17-1.44-.5-1.86-.82-.64-1.46-.64-1.12,.21-1.44,.63-.49,1.04-.49,1.87Z" style="fill: #1463b4;"/>
    <path d="M220.62,329.41l-.19-.91h-.05c-.32,.4-.64,.67-.96,.82s-.72,.21-1.19,.21c-.64,0-1.14-.16-1.5-.49s-.54-.79-.54-1.4c0-1.3,1.04-1.98,3.11-2.04l1.09-.04v-.4c0-.5-.11-.88-.33-1.12s-.56-.36-1.04-.36c-.54,0-1.14,.16-1.82,.49l-.3-.74c.32-.17,.66-.31,1.04-.4s.75-.15,1.13-.15c.77,0,1.33,.17,1.7,.51s.55,.88,.55,1.63v4.38h-.72Zm-2.2-.69c.61,0,1.08-.17,1.43-.5s.52-.8,.52-1.39v-.58l-.97,.04c-.77,.03-1.33,.15-1.67,.36s-.51,.54-.51,.99c0,.35,.11,.62,.32,.8s.51,.28,.89,.28Z" style="fill: #1463b4;"/>
    <path d="M225.48,329.52c-.83,0-1.47-.29-1.94-.87s-.7-1.39-.7-2.44,.23-1.87,.7-2.46,1.12-.88,1.96-.88c.88,0,1.55,.33,2.03,1h.05l.14-.88h.77v9.3h-.97v-2.75c0-.39,.02-.72,.06-1h-.08c-.45,.65-1.12,.98-2.03,.98Zm.15-.81c.65,0,1.12-.17,1.42-.52s.46-.93,.47-1.76v-.22c0-.9-.15-1.54-.46-1.94s-.79-.59-1.45-.59c-.57,0-1.01,.22-1.31,.67s-.45,1.07-.45,1.88,.15,1.42,.45,1.85,.74,.64,1.33,.64Z" style="fill: #1463b4;"/>
    <path d="M231.32,322.99v4.17c0,.52,.12,.91,.36,1.17s.61,.39,1.12,.39c.67,0,1.16-.18,1.47-.55s.47-.97,.47-1.8v-3.38h.97v6.42h-.8l-.14-.86h-.05c-.2,.32-.48,.56-.83,.73s-.76,.25-1.21,.25c-.78,0-1.37-.19-1.75-.56s-.58-.96-.58-1.78v-4.2h.98Z" style="fill: #1463b4;"/>
    <path d="M237.59,321.99c.19-.24,.39-.54,.61-.88s.39-.64,.51-.9h1.18v.12c-.17,.25-.43,.57-.77,.94s-.63,.66-.88,.86h-.65v-.15Zm1.01,7.42h-.97v-6.42h.97v6.42Z" style="fill: #1463b4;"/>
  </g>
  <g>
    <path d="M187.07,252.41v-8.57h1v8.57h-1Z" style="fill: #fff;"/>
    <path d="M194.52,252.41v-4.15c0-.52-.12-.91-.36-1.17s-.61-.39-1.12-.39c-.67,0-1.16,.18-1.48,.54s-.47,.96-.47,1.8v3.37h-.97v-6.42h.79l.16,.88h.05c.2-.32,.48-.56,.84-.74s.76-.26,1.2-.26c.77,0,1.36,.19,1.75,.56s.59,.97,.59,1.79v4.19h-.97Z" style="fill: #fff;"/>
    <path d="M202.6,245.99v.62l-1.19,.14c.11,.14,.21,.32,.29,.54s.13,.47,.13,.75c0,.63-.21,1.13-.64,1.51s-1.02,.56-1.77,.56c-.19,0-.37-.02-.54-.05-.41,.22-.62,.49-.62,.83,0,.18,.07,.31,.22,.39s.39,.13,.74,.13h1.14c.7,0,1.23,.15,1.6,.44s.56,.72,.56,1.28c0,.71-.29,1.25-.86,1.63s-1.4,.56-2.5,.56c-.84,0-1.49-.16-1.94-.47s-.68-.75-.68-1.32c0-.39,.12-.73,.38-1.01s.6-.48,1.05-.58c-.16-.07-.3-.19-.41-.35s-.17-.34-.17-.54c0-.23,.06-.44,.19-.62s.32-.35,.59-.51c-.33-.14-.6-.37-.81-.7s-.31-.7-.31-1.12c0-.7,.21-1.25,.63-1.63s1.02-.57,1.79-.57c.34,0,.64,.04,.91,.12h2.22Zm-5.12,7.5c0,.35,.15,.61,.44,.79s.71,.27,1.26,.27c.82,0,1.42-.12,1.81-.37s.59-.58,.59-.99c0-.35-.11-.59-.32-.72s-.62-.2-1.21-.2h-1.17c-.44,0-.79,.11-1.03,.32s-.37,.51-.37,.91Zm.53-5.44c0,.45,.13,.79,.38,1.02s.61,.35,1.06,.35c.95,0,1.42-.46,1.42-1.38s-.48-1.45-1.44-1.45c-.46,0-.81,.12-1.05,.37s-.37,.61-.37,1.1Z" style="fill: #fff;"/>
    <path d="M206.71,245.87c.29,0,.54,.02,.77,.07l-.13,.9c-.27-.06-.5-.09-.7-.09-.52,0-.96,.21-1.33,.63s-.55,.95-.55,1.58v3.45h-.97v-6.42h.8l.11,1.19h.05c.24-.42,.53-.74,.86-.97s.71-.34,1.11-.34Z" style="fill: #fff;"/>
    <path d="M211.25,252.52c-.95,0-1.7-.29-2.25-.87s-.82-1.38-.82-2.41,.25-1.86,.76-2.47,1.19-.91,2.05-.91c.8,0,1.44,.26,1.91,.79s.7,1.23,.7,2.09v.62h-4.42c.02,.75,.21,1.33,.57,1.72s.87,.59,1.53,.59c.69,0,1.38-.14,2.05-.43v.87c-.34,.15-.67,.25-.98,.32s-.68,.1-1.11,.1Zm-.26-5.84c-.52,0-.93,.17-1.23,.5s-.49,.8-.54,1.39h3.36c0-.61-.14-1.08-.41-1.41s-.66-.49-1.17-.49Z" style="fill: #fff;"/>
    <path d="M219.26,250.66c0,.6-.22,1.06-.67,1.38s-1.07,.49-1.88,.49c-.85,0-1.52-.13-1.99-.4v-.9c.31,.16,.64,.28,.99,.37s.69,.13,1.02,.13c.51,0,.9-.08,1.17-.24s.41-.41,.41-.74c0-.25-.11-.46-.33-.64s-.64-.39-1.27-.63c-.6-.22-1.02-.42-1.27-.58s-.44-.35-.56-.57-.18-.46-.18-.76c0-.52,.21-.94,.64-1.24s1.01-.45,1.75-.45c.69,0,1.37,.14,2.03,.42l-.35,.79c-.64-.27-1.23-.4-1.75-.4-.46,0-.81,.07-1.04,.22s-.35,.34-.35,.6c0,.17,.04,.32,.13,.44s.23,.24,.42,.35,.57,.27,1.12,.47c.76,.28,1.28,.56,1.54,.84s.4,.63,.4,1.06Z" style="fill: #fff;"/>
    <path d="M224.65,252.41l-.19-.91h-.05c-.32,.4-.64,.67-.96,.82s-.72,.21-1.19,.21c-.64,0-1.14-.16-1.5-.49s-.54-.79-.54-1.4c0-1.3,1.04-1.98,3.11-2.04l1.09-.04v-.4c0-.5-.11-.88-.33-1.12s-.56-.36-1.04-.36c-.54,0-1.14,.16-1.82,.49l-.3-.74c.32-.17,.66-.31,1.04-.4s.75-.15,1.13-.15c.77,0,1.33,.17,1.7,.51s.55,.88,.55,1.63v4.38h-.72Zm-2.2-.69c.61,0,1.08-.17,1.43-.5s.52-.8,.52-1.39v-.58l-.97,.04c-.77,.03-1.33,.15-1.67,.36s-.51,.54-.51,.99c0,.35,.11,.62,.32,.8s.51,.28,.89,.28Z" style="fill: #fff;"/>
    <path d="M230.16,245.87c.29,0,.54,.02,.77,.07l-.13,.9c-.27-.06-.5-.09-.7-.09-.52,0-.96,.21-1.33,.63s-.55,.95-.55,1.58v3.45h-.97v-6.42h.8l.11,1.19h.05c.24-.42,.53-.74,.86-.97s.71-.34,1.11-.34Z" style="fill: #fff;"/>
  </g>
</svg>