<?xml version="1.0" encoding="UTF-8"?>
<svg id="Layer_1" data-name="Layer 1" xmlns="http://www.w3.org/2000/svg" viewBox="0 0 400 130">
  <path d="M126.39,60.97c0,2.54-2.1,4.59-4.68,4.59h-21.81c-2.63,0-4.73-2.05-4.73-4.59v-21.41c0-2.59,2.1-4.64,4.73-4.64h21.81c2.59,0,4.68,2.05,4.68,4.59v21.45Z" style="fill: #dd193e;"/>
  <g>
    <path d="M104.22,61.64h-4.55l14.09-24,3.39,5.49c-7,3.48-12.31,11.55-12.93,18.51" style="fill: #fdbb30;"/>
    <path d="M108.24,61.64h-3.97c1.47-8.07,6.69-14.18,13.47-17.44l1.38,2.36c-5.8,2.81-10.12,8.56-10.88,15.08" style="fill: #fdbb30;"/>
    <path d="M108.33,61.64c.94-6.47,5.53-11.73,11.24-14.36l2.68,4.64c-3.75,1.74-6.74,5.13-7.67,9.05-.04,.22-.09,.45-.13,.67,0,0-6.11,0-6.11,0Z" style="fill: #fdbb30;"/>
  </g>
  <g>
    <path d="M151.21,51.48h6.72l-2.26,10.42c-2.11,.73-4.16,1.1-6.14,1.1-2.58,0-4.58-.71-6.01-2.12s-2.15-3.38-2.15-5.91,.5-5.02,1.49-7.17,2.37-3.83,4.12-5.02,3.71-1.79,5.84-1.79c1.14,0,2.21,.1,3.22,.29s2.01,.51,3.02,.94l-.97,2.23c-.75-.33-1.56-.62-2.42-.86s-1.81-.37-2.85-.37c-1.65,0-3.15,.5-4.5,1.49s-2.4,2.38-3.16,4.15-1.13,3.76-1.13,5.96c0,1.86,.5,3.32,1.5,4.38s2.4,1.6,4.2,1.6c1.5,0,2.77-.19,3.81-.57l1.41-6.5h-4.23l.48-2.23Z" style="fill: #1463b4;"/>
    <path d="M166.26,62.71h-2.52l4.06-19.2h-5.95l.48-2.21h14.43l-.44,2.21h-5.98l-4.09,19.2Z" style="fill: #1463b4;"/>
    <path d="M187.51,43.21c-1.7,0-3.22,.47-4.56,1.42s-2.41,2.34-3.19,4.17-1.18,3.83-1.18,5.98c0,1.83,.48,3.28,1.43,4.37s2.26,1.63,3.93,1.63c1.36,0,2.93-.28,4.72-.83v2.18c-.84,.3-1.64,.52-2.4,.66s-1.68,.21-2.75,.21c-2.36,0-4.22-.73-5.57-2.19s-2.02-3.45-2.02-5.97,.52-4.92,1.55-7.11,2.41-3.86,4.15-5.02,3.71-1.73,5.9-1.73c1.92,0,3.62,.39,5.1,1.17l-1.01,2.07c-1.35-.67-2.71-1.01-4.09-1.01Z" style="fill: #1463b4;"/>
  </g>
  <g>
    <path d="M214.6,48.67c0,2.82-.49,5.35-1.48,7.58-.99,2.23-2.34,3.91-4.05,5.05-1.71,1.14-3.69,1.71-5.92,1.71-2.55,0-4.54-.74-5.98-2.21-1.43-1.47-2.15-3.51-2.15-6.12s.49-5.07,1.48-7.29,2.35-3.92,4.08-5.11c1.73-1.19,3.74-1.78,6.01-1.78,2.54,0,4.51,.72,5.91,2.15s2.09,3.45,2.09,6.03Zm-8.38-4.32c-1.21,0-2.31,.46-3.32,1.37-1.01,.91-1.8,2.17-2.37,3.76-.57,1.6-.86,3.33-.86,5.19,0,1.47,.33,2.57,1,3.32,.66,.75,1.6,1.12,2.8,1.12s2.31-.43,3.3-1.3,1.77-2.09,2.33-3.68,.84-3.37,.84-5.34c0-1.42-.32-2.51-.97-3.28-.65-.77-1.56-1.16-2.74-1.16Z" style="fill: #1463b4;"/>
    <path d="M233.98,62.71h-5.12l-5.33-16.54h-.09l-.06,.48c-.32,2.15-.65,4.08-.99,5.77l-2.17,10.29h-4.11l4.62-21.87h5.34l5.08,16.11h.06c.12-.76,.31-1.84,.58-3.25,.27-1.41,1.17-5.69,2.69-12.86h4.1l-4.62,21.87Z" style="fill: #1463b4;"/>
    <path d="M239.04,62.71l4.62-21.87h4.58l-3.83,18.04h7.66l-.81,3.83h-12.22Z" style="fill: #1463b4;"/>
    <path d="M254.69,62.71l4.67-21.87h4.56l-4.67,21.87h-4.56Z" style="fill: #1463b4;"/>
    <path d="M282.19,62.71h-5.12l-5.33-16.54h-.09l-.06,.48c-.32,2.15-.65,4.08-.99,5.77l-2.17,10.29h-4.11l4.62-21.87h5.34l5.09,16.11h.06c.12-.76,.31-1.84,.58-3.25,.27-1.41,1.17-5.69,2.69-12.86h4.1l-4.62,21.87Z" style="fill: #1463b4;"/>
    <path d="M299.46,62.71h-12.22l4.62-21.87h12.24l-.81,3.8h-7.66l-1,4.8h7.13l-.82,3.8h-7.13l-1.2,5.64h7.66l-.81,3.83Z" style="fill: #1463b4;"/>
  </g>
  <g>
    <path d="M108.46,89.14v3.27h-.78v-8.4h2.17c.44,0,.83,.05,1.17,.16s.63,.27,.86,.47,.41,.46,.53,.76,.18,.64,.18,1.03-.07,.75-.21,1.08-.33,.62-.59,.86-.57,.43-.93,.56-.78,.2-1.25,.2h-1.16Zm0-4.42v3.7h1.11c.72,0,1.27-.17,1.65-.5s.56-.81,.56-1.42c0-1.18-.69-1.78-2.07-1.78h-1.25Z" style="fill: #777;"/>
    <path d="M116.19,92.55c-.45,0-.84-.07-1.2-.22s-.66-.36-.91-.63-.44-.6-.57-.98-.2-.8-.2-1.26c0-.5,.07-.95,.21-1.34s.34-.73,.6-1,.57-.49,.94-.63,.78-.22,1.23-.22,.82,.07,1.17,.21,.64,.35,.88,.62,.43,.6,.56,.98,.19,.83,.19,1.32-.07,.9-.2,1.28-.33,.72-.58,.99-.55,.49-.91,.64-.77,.23-1.22,.23Zm.06-5.63c-.33,0-.62,.06-.89,.17s-.49,.28-.68,.5-.33,.48-.44,.8-.15,.67-.15,1.07c0,.38,.05,.71,.15,1.01s.25,.56,.43,.77,.41,.38,.68,.5,.56,.17,.89,.17,.63-.06,.89-.17,.48-.27,.66-.49,.32-.47,.41-.78,.14-.66,.14-1.05c0-.81-.18-1.43-.54-1.85s-.87-.64-1.54-.64Z" style="fill: #777;"/>
    <path d="M123.59,87.17c-.18-.13-.4-.19-.68-.19-.2,0-.38,.04-.53,.11s-.29,.18-.4,.31-.21,.28-.29,.45-.14,.35-.19,.53-.08,.37-.11,.56-.03,.37-.03,.53v2.94h-.74v-6h.74v1.28h.02c.07-.22,.16-.42,.27-.59s.23-.32,.37-.44,.29-.21,.46-.27,.34-.09,.52-.09c.12,0,.23,0,.33,.02s.18,.04,.26,.07v.79Z" style="fill: #777;"/>
    <path d="M130.76,84.23c-.17-.11-.38-.16-.65-.16-.7,0-1.05,.46-1.05,1.38v.96h1.49v.66h-1.49v5.34h-.75v-5.34h-1.05v-.66h1.05v-1.01c0-.3,.04-.57,.11-.82s.19-.45,.34-.63,.33-.31,.56-.4,.48-.14,.78-.14,.5,.04,.67,.11v.71Z" style="fill: #777;"/>
    <path d="M134.96,92.41v-1.07h-.02c-.2,.38-.46,.68-.8,.89s-.72,.32-1.15,.32c-.29,0-.55-.04-.78-.12s-.43-.2-.59-.35-.29-.33-.38-.54-.13-.44-.13-.7c0-.54,.17-.98,.5-1.3s.84-.53,1.52-.63l1.82-.26c0-1.15-.45-1.73-1.34-1.73-.7,0-1.35,.26-1.95,.77v-.82c.12-.09,.27-.17,.42-.24s.33-.13,.5-.19,.36-.09,.54-.12,.37-.04,.54-.04c.67,0,1.17,.19,1.51,.56s.51,.93,.51,1.68v3.9h-.75Zm-1.55-2.91c-.27,.04-.5,.09-.69,.15s-.35,.14-.47,.24-.22,.22-.28,.37-.09,.33-.09,.54c0,.16,.03,.31,.08,.45s.14,.25,.25,.35,.24,.18,.39,.23,.33,.08,.52,.08c.27,0,.51-.05,.73-.15s.42-.24,.58-.42,.29-.39,.38-.64,.14-.52,.14-.81v-.59l-1.55,.22Z" style="fill: #777;"/>
    <path d="M139.65,92.41h-.71l-2.3-6h.83l1.66,4.57c.1,.28,.17,.52,.19,.73h.02c.05-.28,.11-.52,.18-.71l1.72-4.59h.8l-2.39,6Z" style="fill: #777;"/>
    <path d="M145.49,92.55c-.45,0-.84-.07-1.2-.22s-.66-.36-.91-.63-.44-.6-.57-.98-.2-.8-.2-1.26c0-.5,.07-.95,.21-1.34s.34-.73,.6-1,.57-.49,.94-.63,.78-.22,1.23-.22,.82,.07,1.17,.21,.64,.35,.88,.62,.43,.6,.56,.98,.19,.83,.19,1.32-.07,.9-.2,1.28-.33,.72-.58,.99-.55,.49-.91,.64-.77,.23-1.22,.23Zm.06-5.63c-.33,0-.62,.06-.89,.17s-.49,.28-.68,.5-.33,.48-.44,.8-.15,.67-.15,1.07c0,.38,.05,.71,.15,1.01s.25,.56,.43,.77,.41,.38,.68,.5,.56,.17,.89,.17,.63-.06,.89-.17,.48-.27,.66-.49,.32-.47,.41-.78,.14-.66,.14-1.05c0-.81-.18-1.43-.54-1.85s-.87-.64-1.54-.64Z" style="fill: #777;"/>
    <path d="M152.89,87.17c-.18-.13-.4-.19-.68-.19-.2,0-.38,.04-.53,.11s-.29,.18-.4,.31-.21,.28-.29,.45-.14,.35-.19,.53-.08,.37-.11,.56-.03,.37-.03,.53v2.94h-.74v-6h.74v1.28h.02c.07-.22,.16-.42,.27-.59s.23-.32,.37-.44,.29-.21,.46-.27,.34-.09,.52-.09c.12,0,.23,0,.33,.02s.18,.04,.26,.07v.79Z" style="fill: #777;"/>
    <path d="M157.62,89.54c0,.37,.05,.7,.15,.99s.23,.54,.4,.74,.39,.36,.64,.47,.54,.16,.85,.16c.68,0,1.31-.24,1.92-.71v.74c-.57,.41-1.27,.62-2.09,.62-.4,0-.77-.07-1.1-.21s-.61-.34-.84-.61-.41-.6-.53-.99-.19-.84-.19-1.34c0-.45,.07-.87,.21-1.25s.33-.71,.57-.99,.53-.5,.86-.66,.7-.24,1.09-.24,.73,.07,1.03,.2,.55,.33,.75,.58,.35,.55,.46,.91,.16,.76,.16,1.21v.38h-4.34Zm3.56-.66c-.01-.62-.16-1.11-.45-1.45s-.68-.52-1.19-.52c-.25,0-.49,.04-.71,.13s-.41,.22-.57,.39-.3,.38-.41,.62-.18,.52-.23,.82h3.54Z" style="fill: #777;"/>
    <path d="M163.09,91.33c.11,.09,.24,.17,.37,.24s.27,.13,.41,.18,.28,.09,.42,.11,.28,.04,.41,.04c.89,0,1.34-.33,1.34-1,0-.15-.03-.28-.09-.4s-.15-.21-.27-.3-.26-.18-.42-.25-.35-.16-.56-.25c-.28-.11-.52-.23-.71-.35s-.36-.25-.49-.38-.22-.29-.29-.46-.09-.35-.09-.57c0-.27,.06-.5,.17-.71s.27-.38,.47-.53,.42-.25,.68-.33,.52-.11,.81-.11c.52,0,.97,.1,1.36,.29v.79c-.45-.29-.93-.43-1.45-.43-.19,0-.36,.02-.51,.07s-.29,.11-.4,.2-.19,.19-.25,.31-.09,.25-.09,.4,.02,.28,.07,.39,.12,.21,.22,.3,.23,.18,.39,.26,.35,.17,.58,.26c.29,.12,.54,.23,.75,.35s.38,.24,.52,.38,.24,.29,.3,.45,.1,.36,.1,.58c0,.27-.06,.51-.17,.72s-.27,.39-.46,.53-.43,.25-.69,.33-.55,.11-.87,.11c-.61,0-1.12-.13-1.53-.38v-.84Z" style="fill: #777;"/>
    <path d="M169.05,91.44v3.73h-.75v-8.76h.75v1.15h.02c.22-.42,.52-.74,.89-.96s.79-.33,1.26-.33c.38,0,.73,.07,1.03,.21s.56,.33,.77,.59,.37,.56,.48,.93,.17,.77,.17,1.22c0,.5-.06,.95-.19,1.36s-.3,.76-.54,1.05-.52,.52-.85,.68-.71,.24-1.13,.24c-.84,0-1.47-.37-1.89-1.11h-.02Zm0-1.53c0,.27,.05,.53,.14,.77s.22,.45,.38,.63,.36,.33,.59,.43,.49,.16,.77,.16c.3,0,.57-.06,.81-.19s.45-.31,.62-.54,.3-.52,.39-.85,.14-.7,.14-1.11c0-.35-.04-.67-.13-.95s-.21-.52-.37-.72-.35-.35-.57-.46-.48-.16-.75-.16c-.31,0-.59,.06-.84,.17s-.46,.27-.64,.47-.31,.43-.4,.7-.14,.55-.14,.85v.8Z" style="fill: #777;"/>
    <path d="M175.54,89.54c0,.37,.05,.7,.15,.99s.23,.54,.4,.74,.39,.36,.64,.47,.54,.16,.85,.16c.68,0,1.31-.24,1.92-.71v.74c-.57,.41-1.27,.62-2.09,.62-.4,0-.77-.07-1.1-.21s-.61-.34-.84-.61-.41-.6-.53-.99-.19-.84-.19-1.34c0-.45,.07-.87,.21-1.25s.33-.71,.57-.99,.53-.5,.86-.66,.7-.24,1.09-.24,.73,.07,1.03,.2,.55,.33,.75,.58,.35,.55,.46,.91,.16,.76,.16,1.21v.38h-4.34Zm3.56-.66c-.01-.62-.16-1.11-.45-1.45s-.68-.52-1.19-.52c-.25,0-.49,.04-.71,.13s-.41,.22-.57,.39-.3,.38-.41,.62-.18,.52-.23,.82h3.54Z" style="fill: #777;"/>
    <path d="M184.33,87.17c-.18-.13-.4-.19-.68-.19-.2,0-.38,.04-.53,.11s-.29,.18-.4,.31-.21,.28-.29,.45-.14,.35-.19,.53-.08,.37-.11,.56-.03,.37-.03,.53v2.94h-.74v-6h.74v1.28h.02c.07-.22,.16-.42,.27-.59s.23-.32,.37-.44,.29-.21,.46-.27,.34-.09,.52-.09c.12,0,.23,0,.33,.02s.18,.04,.26,.07v.79Z" style="fill: #777;"/>
    <path d="M185.62,89.54c0,.37,.05,.7,.15,.99s.23,.54,.4,.74,.39,.36,.64,.47,.54,.16,.85,.16c.68,0,1.31-.24,1.92-.71v.74c-.57,.41-1.27,.62-2.09,.62-.4,0-.77-.07-1.1-.21s-.61-.34-.84-.61-.41-.6-.53-.99-.19-.84-.19-1.34c0-.45,.07-.87,.21-1.25s.33-.71,.57-.99,.53-.5,.86-.66,.7-.24,1.09-.24,.73,.07,1.03,.2,.55,.33,.75,.58,.35,.55,.46,.91,.16,.76,.16,1.21v.38h-4.34Zm3.56-.66c-.01-.62-.16-1.11-.45-1.45s-.68-.52-1.19-.52c-.25,0-.49,.04-.71,.13s-.41,.22-.57,.39-.3,.38-.41,.62-.18,.52-.23,.82h3.54Z" style="fill: #777;"/>
    <path d="M202.25,92.41v-3.53c0-.36-.03-.66-.08-.91s-.14-.45-.25-.61-.26-.27-.44-.34-.39-.11-.64-.11c-.22,0-.43,.05-.62,.16s-.37,.25-.51,.43-.26,.4-.35,.64-.13,.51-.13,.8v3.47h-.75v-3.6c0-1.26-.48-1.89-1.45-1.89-.22,0-.43,.05-.62,.15s-.36,.24-.5,.42-.25,.4-.33,.65-.12,.53-.12,.83v3.44h-.75v-6h.75v.97h.02c.42-.74,1.04-1.11,1.85-1.11,.21,0,.41,.03,.6,.1s.36,.15,.5,.27,.28,.25,.38,.41,.19,.34,.24,.53c.21-.43,.49-.75,.82-.97s.72-.33,1.15-.33c1.32,0,1.97,.81,1.97,2.44v3.7h-.75Z" style="fill: #777;"/>
    <path d="M205.17,84.89c-.14,0-.27-.05-.38-.15s-.16-.23-.16-.39,.05-.28,.16-.38,.23-.15,.38-.15c.07,0,.14,.01,.21,.04s.12,.06,.17,.11,.09,.1,.12,.17,.04,.14,.04,.21-.01,.14-.04,.21-.07,.12-.12,.17-.11,.09-.17,.11-.14,.04-.21,.04Zm-.37,7.52v-6h.75v6h-.75Z" style="fill: #777;"/>
    <path d="M207.85,89.54c0,.37,.05,.7,.15,.99s.23,.54,.4,.74,.39,.36,.64,.47,.54,.16,.85,.16c.68,0,1.31-.24,1.92-.71v.74c-.57,.41-1.27,.62-2.09,.62-.4,0-.77-.07-1.1-.21s-.61-.34-.84-.61-.41-.6-.53-.99-.19-.84-.19-1.34c0-.45,.07-.87,.21-1.25s.33-.71,.57-.99,.53-.5,.86-.66,.7-.24,1.09-.24,.73,.07,1.03,.2,.55,.33,.75,.58,.35,.55,.46,.91,.16,.76,.16,1.21v.38h-4.34Zm3.56-.66c-.01-.62-.16-1.11-.45-1.45s-.68-.52-1.19-.52c-.25,0-.49,.04-.71,.13s-.41,.22-.57,.39-.3,.38-.41,.62-.18,.52-.23,.82h3.54Z" style="fill: #777;"/>
    <path d="M217.7,92.41v-3.46c0-1.36-.49-2.03-1.48-2.03-.26,0-.5,.05-.73,.16s-.42,.25-.58,.43-.29,.4-.38,.65-.14,.52-.14,.82v3.43h-.75v-6h.75v1.04h.02c.45-.79,1.12-1.18,2.01-1.18,.66,0,1.16,.21,1.5,.64s.52,1.04,.52,1.85v3.66h-.75Z" style="fill: #777;"/>
    <path d="M222.83,92.33c-.26,.13-.54,.19-.84,.19-.97,0-1.45-.56-1.45-1.68v-3.79h-1.05v-.66h1.05v-1.51l.75-.25v1.76h1.55v.66h-1.55v3.67c0,.41,.07,.7,.2,.88s.36,.27,.67,.27c.23,0,.46-.07,.67-.21v.66Z" style="fill: #777;"/>
    <path d="M227.05,87.17c-.18-.13-.4-.19-.68-.19-.2,0-.38,.04-.53,.11s-.29,.18-.4,.31-.21,.28-.29,.45-.14,.35-.19,.53-.08,.37-.11,.56-.03,.37-.03,.53v2.94h-.74v-6h.74v1.28h.02c.07-.22,.16-.42,.27-.59s.23-.32,.37-.44,.29-.21,.46-.27,.34-.09,.52-.09c.12,0,.23,0,.33,.02s.18,.04,.26,.07v.79Z" style="fill: #777;"/>
    <path d="M231.59,92.41v-1.07h-.02c-.2,.38-.46,.68-.8,.89s-.72,.32-1.15,.32c-.29,0-.55-.04-.78-.12s-.43-.2-.59-.35-.29-.33-.38-.54-.13-.44-.13-.7c0-.54,.17-.98,.5-1.3s.84-.53,1.52-.63l1.82-.26c0-1.15-.45-1.73-1.34-1.73-.7,0-1.35,.26-1.95,.77v-.82c.12-.09,.27-.17,.42-.24s.33-.13,.5-.19,.36-.09,.54-.12,.37-.04,.54-.04c.67,0,1.17,.19,1.51,.56s.51,.93,.51,1.68v3.9h-.75Zm-1.55-2.91c-.27,.04-.5,.09-.69,.15s-.35,.14-.47,.24-.22,.22-.28,.37-.09,.33-.09,.54c0,.16,.03,.31,.08,.45s.14,.25,.25,.35,.24,.18,.39,.23,.33,.08,.52,.08c.27,0,.51-.05,.73-.15s.42-.24,.58-.42,.29-.39,.38-.64,.14-.52,.14-.81v-.59l-1.55,.22Z" style="fill: #777;"/>
    <path d="M233.81,91.33c.11,.09,.24,.17,.37,.24s.27,.13,.41,.18,.28,.09,.42,.11,.28,.04,.41,.04c.89,0,1.34-.33,1.34-1,0-.15-.03-.28-.09-.4s-.15-.21-.27-.3-.26-.18-.42-.25-.35-.16-.56-.25c-.28-.11-.52-.23-.71-.35s-.36-.25-.49-.38-.22-.29-.29-.46-.09-.35-.09-.57c0-.27,.06-.5,.17-.71s.27-.38,.47-.53,.42-.25,.68-.33,.52-.11,.81-.11c.52,0,.97,.1,1.36,.29v.79c-.45-.29-.93-.43-1.45-.43-.19,0-.36,.02-.51,.07s-.29,.11-.4,.2-.19,.19-.25,.31-.09,.25-.09,.4,.02,.28,.07,.39,.12,.21,.22,.3,.23,.18,.39,.26,.35,.17,.58,.26c.29,.12,.54,.23,.75,.35s.38,.24,.52,.38,.24,.29,.3,.45,.1,.36,.1,.58c0,.27-.06,.51-.17,.72s-.27,.39-.46,.53-.43,.25-.69,.33-.55,.11-.87,.11c-.61,0-1.12-.13-1.53-.38v-.84Z" style="fill: #777;"/>
    <path d="M244.45,92.41h-.71l-2.3-6h.83l1.66,4.57c.1,.28,.17,.52,.19,.73h.02c.05-.28,.11-.52,.18-.71l1.72-4.59h.8l-2.39,6Z" style="fill: #777;"/>
    <path d="M251.14,92.41v-1.07h-.02c-.2,.38-.46,.68-.8,.89s-.72,.32-1.15,.32c-.29,0-.55-.04-.78-.12s-.43-.2-.59-.35-.29-.33-.38-.54-.13-.44-.13-.7c0-.54,.17-.98,.5-1.3s.84-.53,1.52-.63l1.82-.26c0-1.15-.45-1.73-1.34-1.73-.7,0-1.35,.26-1.95,.77v-.82c.12-.09,.27-.17,.42-.24s.33-.13,.5-.19,.36-.09,.54-.12,.37-.04,.54-.04c.67,0,1.17,.19,1.51,.56s.51,.93,.51,1.68v3.9h-.75Zm-1.55-2.91c-.27,.04-.5,.09-.69,.15s-.35,.14-.47,.24-.22,.22-.28,.37-.09,.33-.09,.54c0,.16,.03,.31,.08,.45s.14,.25,.25,.35,.24,.18,.39,.23,.33,.08,.52,.08c.27,0,.51-.05,.73-.15s.42-.24,.58-.42,.29-.39,.38-.64,.14-.52,.14-.81v-.59l-1.55,.22Z" style="fill: #777;"/>
    <path d="M253.7,92.41v-8.88h.75v8.88h-.75Z" style="fill: #777;"/>
    <path d="M256.75,84.89c-.14,0-.27-.05-.38-.15s-.16-.23-.16-.39,.05-.28,.16-.38,.23-.15,.38-.15c.07,0,.14,.01,.21,.04s.12,.06,.17,.11,.09,.1,.12,.17,.04,.14,.04,.21-.01,.14-.04,.21-.07,.12-.12,.17-.11,.09-.17,.11-.14,.04-.21,.04Zm-.37,7.52v-6h.75v6h-.75Z" style="fill: #777;"/>
    <path d="M263.27,92.41v-1.05h-.02c-.2,.38-.48,.67-.85,.88s-.79,.31-1.26,.31c-.38,0-.72-.07-1.02-.21s-.57-.34-.79-.6-.39-.58-.51-.95-.18-.79-.18-1.26,.07-.93,.2-1.33,.32-.74,.56-1.03,.53-.51,.87-.67,.71-.24,1.13-.24c.86,0,1.48,.35,1.86,1.04h.02v-3.78h.75v8.88h-.75Zm0-3.62c0-.26-.04-.51-.13-.73s-.21-.42-.38-.59-.35-.3-.58-.4-.47-.15-.74-.15c-.3,0-.57,.06-.82,.18s-.46,.29-.64,.51-.32,.49-.42,.81-.15,.68-.15,1.08c0,.38,.04,.72,.13,1.02s.22,.55,.38,.76,.36,.37,.59,.47,.49,.16,.77,.16c.3,0,.58-.05,.82-.16s.45-.26,.62-.45,.3-.42,.39-.67,.14-.53,.14-.83v-1Z" style="fill: #777;"/>
    <path d="M269.41,92.41v-1.07h-.02c-.2,.38-.46,.68-.8,.89s-.72,.32-1.15,.32c-.29,0-.55-.04-.78-.12s-.43-.2-.59-.35-.29-.33-.38-.54-.13-.44-.13-.7c0-.54,.17-.98,.5-1.3s.84-.53,1.52-.63l1.82-.26c0-1.15-.45-1.73-1.34-1.73-.7,0-1.35,.26-1.95,.77v-.82c.12-.09,.27-.17,.42-.24s.33-.13,.5-.19,.36-.09,.54-.12,.37-.04,.54-.04c.67,0,1.17,.19,1.51,.56s.51,.93,.51,1.68v3.9h-.75Zm-1.55-2.91c-.27,.04-.5,.09-.69,.15s-.35,.14-.47,.24-.22,.22-.28,.37-.09,.33-.09,.54c0,.16,.03,.31,.08,.45s.14,.25,.25,.35,.24,.18,.39,.23,.33,.08,.52,.08c.27,0,.51-.05,.73-.15s.42-.24,.58-.42,.29-.39,.38-.64,.14-.52,.14-.81v-.59l-1.55,.22Z" style="fill: #777;"/>
    <path d="M279.51,92.41v-3.53c0-.36-.03-.66-.08-.91s-.14-.45-.25-.61-.26-.27-.44-.34-.39-.11-.64-.11c-.22,0-.43,.05-.62,.16s-.37,.25-.51,.43-.26,.4-.35,.64-.13,.51-.13,.8v3.47h-.75v-3.6c0-1.26-.48-1.89-1.45-1.89-.22,0-.43,.05-.62,.15s-.36,.24-.5,.42-.25,.4-.33,.65-.12,.53-.12,.83v3.44h-.75v-6h.75v.97h.02c.42-.74,1.04-1.11,1.85-1.11,.21,0,.41,.03,.6,.1s.36,.15,.5,.27,.28,.25,.38,.41,.19,.34,.24,.53c.21-.43,.49-.75,.82-.97s.72-.33,1.15-.33c1.32,0,1.97,.81,1.97,2.44v3.7h-.75Z" style="fill: #777;"/>
    <path d="M284.52,92.55c-.45,0-.84-.07-1.2-.22s-.66-.36-.91-.63-.44-.6-.57-.98-.2-.8-.2-1.26c0-.5,.07-.95,.21-1.34s.34-.73,.6-1,.57-.49,.94-.63,.78-.22,1.23-.22,.82,.07,1.17,.21,.64,.35,.88,.62,.43,.6,.56,.98,.19,.83,.19,1.32-.07,.9-.2,1.28-.33,.72-.58,.99-.55,.49-.91,.64-.77,.23-1.22,.23Zm.06-5.63c-.33,0-.62,.06-.89,.17s-.49,.28-.68,.5-.33,.48-.44,.8-.15,.67-.15,1.07c0,.38,.05,.71,.15,1.01s.25,.56,.43,.77,.41,.38,.68,.5,.56,.17,.89,.17,.63-.06,.89-.17,.48-.27,.66-.49,.32-.47,.41-.78,.14-.66,.14-1.05c0-.81-.18-1.43-.54-1.85s-.87-.64-1.54-.64Z" style="fill: #777;"/>
    <path d="M288.6,91.33c.11,.09,.24,.17,.37,.24s.27,.13,.41,.18,.28,.09,.42,.11,.28,.04,.41,.04c.89,0,1.34-.33,1.34-1,0-.15-.03-.28-.09-.4s-.15-.21-.27-.3-.26-.18-.42-.25-.35-.16-.56-.25c-.28-.11-.52-.23-.71-.35s-.36-.25-.49-.38-.22-.29-.29-.46-.09-.35-.09-.57c0-.27,.06-.5,.17-.71s.27-.38,.47-.53,.42-.25,.68-.33,.52-.11,.81-.11c.52,0,.97,.1,1.36,.29v.79c-.45-.29-.93-.43-1.45-.43-.19,0-.36,.02-.51,.07s-.29,.11-.4,.2-.19,.19-.25,.31-.09,.25-.09,.4,.02,.28,.07,.39,.12,.21,.22,.3,.23,.18,.39,.26,.35,.17,.58,.26c.29,.12,.54,.23,.75,.35s.38,.24,.52,.38,.24,.29,.3,.45,.1,.36,.1,.58c0,.27-.06,.51-.17,.72s-.27,.39-.46,.53-.43,.25-.69,.33-.55,.11-.87,.11c-.61,0-1.12-.13-1.53-.38v-.84Z" style="fill: #777;"/>
    <path d="M163.88,105.73c.11,.09,.24,.17,.37,.24s.27,.13,.41,.18,.28,.09,.42,.11,.28,.04,.41,.04c.89,0,1.34-.33,1.34-1,0-.15-.03-.28-.09-.4s-.15-.21-.27-.3-.26-.18-.42-.25-.35-.16-.56-.25c-.28-.11-.52-.23-.71-.35s-.36-.25-.49-.38-.22-.29-.29-.46-.09-.35-.09-.57c0-.27,.06-.5,.17-.71s.27-.38,.47-.53,.42-.25,.68-.33,.52-.11,.81-.11c.52,0,.97,.1,1.36,.29v.79c-.45-.29-.93-.43-1.45-.43-.19,0-.36,.02-.51,.07s-.29,.11-.4,.2-.19,.19-.25,.31-.09,.25-.09,.4,.02,.28,.07,.39,.12,.21,.22,.3,.23,.18,.39,.26,.35,.17,.58,.26c.29,.12,.54,.23,.75,.35s.38,.24,.52,.38,.24,.29,.3,.45,.1,.36,.1,.58c0,.27-.06,.51-.17,.72s-.27,.39-.46,.53-.43,.25-.69,.33-.55,.11-.87,.11c-.61,0-1.12-.13-1.53-.38v-.84Z" style="fill: #777;"/>
    <path d="M173.02,106.81v-1.02h-.02c-.41,.77-1.04,1.16-1.89,1.16-1.43,0-2.14-.87-2.14-2.61v-3.53h.75v3.39c0,.72,.13,1.25,.38,1.59s.65,.52,1.17,.52c.26,0,.49-.05,.71-.15s.4-.24,.55-.42,.27-.4,.36-.65,.13-.54,.13-.84v-3.43h.75v6h-.75Z" style="fill: #777;"/>
    <path d="M179.36,99.29c-.14,0-.27-.05-.38-.15s-.16-.23-.16-.39,.05-.28,.16-.38,.23-.15,.38-.15c.07,0,.14,.01,.21,.04s.12,.06,.17,.11,.09,.1,.12,.17,.04,.14,.04,.21-.01,.14-.04,.21-.07,.12-.12,.17-.11,.09-.17,.11-.14,.04-.21,.04Zm-.37,7.52v-6h.75v6h-.75Z" style="fill: #777;"/>
    <path d="M185.72,106.81v-3.46c0-1.36-.49-2.03-1.48-2.03-.26,0-.5,.05-.73,.16s-.42,.25-.58,.43-.29,.4-.38,.65-.14,.52-.14,.82v3.43h-.75v-6h.75v1.04h.02c.45-.79,1.12-1.18,2.01-1.18,.66,0,1.16,.21,1.5,.64s.52,1.04,.52,1.85v3.66h-.75Z" style="fill: #777;"/>
    <path d="M191.07,98.63c-.17-.11-.38-.16-.65-.16-.7,0-1.05,.46-1.05,1.38v.96h1.49v.66h-1.49v5.34h-.75v-5.34h-1.05v-.66h1.05v-1.01c0-.3,.04-.57,.11-.82s.19-.45,.34-.63,.33-.31,.56-.4,.48-.14,.78-.14,.5,.04,.67,.11v.71Z" style="fill: #777;"/>
    <path d="M194.27,106.95c-.45,0-.84-.07-1.2-.22s-.66-.36-.91-.63-.44-.6-.57-.98-.2-.8-.2-1.26c0-.5,.07-.95,.21-1.34s.34-.73,.6-1,.57-.49,.94-.63,.78-.22,1.23-.22,.82,.07,1.17,.21,.64,.35,.88,.62,.43,.6,.56,.98,.19,.83,.19,1.32-.07,.9-.2,1.28-.33,.72-.58,.99-.55,.49-.91,.64-.77,.23-1.22,.23Zm.06-5.63c-.33,0-.62,.06-.89,.17s-.49,.28-.68,.5-.33,.48-.44,.8-.15,.67-.15,1.07c0,.38,.05,.71,.15,1.01s.25,.56,.43,.77,.41,.38,.68,.5,.56,.17,.89,.17,.63-.06,.89-.17,.48-.27,.66-.49,.32-.47,.41-.78,.14-.66,.14-1.05c0-.81-.18-1.43-.54-1.85s-.87-.64-1.54-.64Z" style="fill: #777;"/>
    <path d="M201.67,101.57c-.18-.13-.4-.19-.68-.19-.2,0-.38,.04-.53,.11s-.29,.18-.4,.31-.21,.28-.29,.45-.14,.35-.19,.53-.08,.37-.11,.56-.03,.37-.03,.53v2.94h-.74v-6h.74v1.28h.02c.07-.22,.16-.42,.27-.59s.23-.32,.37-.44,.29-.21,.46-.27,.34-.09,.52-.09c.12,0,.23,0,.33,.02s.18,.04,.26,.07v.79Z" style="fill: #777;"/>
    <path d="M210.28,106.81v-3.53c0-.36-.03-.66-.08-.91s-.14-.45-.25-.61-.26-.27-.44-.34-.39-.11-.64-.11c-.22,0-.43,.05-.62,.16s-.37,.25-.51,.43-.26,.4-.35,.64-.13,.51-.13,.8v3.47h-.75v-3.6c0-1.26-.48-1.89-1.45-1.89-.22,0-.43,.05-.62,.15s-.36,.24-.5,.42-.25,.4-.33,.65-.12,.53-.12,.83v3.44h-.75v-6h.75v.97h.02c.42-.74,1.04-1.11,1.85-1.11,.21,0,.41,.03,.6,.1s.36,.15,.5,.27,.28,.25,.38,.41,.19,.34,.24,.53c.21-.43,.49-.75,.82-.97s.72-.33,1.15-.33c1.32,0,1.97,.81,1.97,2.44v3.7h-.75Z" style="fill: #777;"/>
    <path d="M216.29,106.81v-1.07h-.02c-.2,.38-.46,.68-.8,.89s-.72,.32-1.15,.32c-.29,0-.55-.04-.78-.12s-.43-.2-.59-.35-.29-.33-.38-.54-.13-.44-.13-.7c0-.54,.17-.98,.5-1.3s.84-.53,1.52-.63l1.82-.26c0-1.15-.45-1.73-1.34-1.73-.7,0-1.35,.26-1.95,.77v-.82c.12-.09,.27-.17,.42-.24s.33-.13,.5-.19,.36-.09,.54-.12,.37-.04,.54-.04c.67,0,1.17,.19,1.51,.56s.51,.93,.51,1.68v3.9h-.75Zm-1.55-2.91c-.27,.04-.5,.09-.69,.15s-.35,.14-.47,.24-.22,.22-.28,.37-.09,.33-.09,.54c0,.16,.03,.31,.08,.45s.14,.25,.25,.35,.24,.18,.39,.23,.33,.08,.52,.08c.27,0,.51-.05,.73-.15s.42-.24,.58-.42,.29-.39,.38-.64,.14-.52,.14-.81v-.59l-1.55,.22Z" style="fill: #777;"/>
    <path d="M222.83,106.54c-.45,.27-.98,.41-1.62,.42-.43,0-.82-.07-1.16-.22s-.64-.36-.88-.64-.43-.59-.56-.96-.19-.77-.19-1.2,.07-.87,.21-1.27,.34-.74,.6-1.04,.58-.53,.96-.7,.81-.26,1.3-.26,.95,.1,1.36,.29v.8c-.44-.29-.91-.43-1.42-.43-.36,0-.67,.07-.95,.2s-.51,.32-.7,.55-.33,.5-.43,.81-.15,.64-.15,.99c0,.32,.04,.63,.13,.92s.21,.55,.39,.78,.39,.4,.66,.54,.58,.2,.94,.2c.56,0,1.07-.17,1.52-.5v.74Z" style="fill: #777;"/>
    <path d="M224.64,99.29c-.14,0-.27-.05-.38-.15s-.16-.23-.16-.39,.05-.28,.16-.38,.23-.15,.38-.15c.07,0,.14,.01,.21,.04s.12,.06,.17,.11,.09,.1,.12,.17,.04,.14,.04,.21-.01,.14-.04,.21-.07,.12-.12,.17-.11,.09-.17,.11-.14,.04-.21,.04Zm-.37,7.52v-6h.75v6h-.75Z" style="fill: #777;"/>
    <path d="M229.41,106.95c-.45,0-.84-.07-1.2-.22s-.66-.36-.91-.63-.44-.6-.57-.98-.2-.8-.2-1.26c0-.5,.07-.95,.21-1.34s.34-.73,.6-1,.57-.49,.94-.63,.78-.22,1.23-.22,.82,.07,1.17,.21,.64,.35,.88,.62,.43,.6,.56,.98,.19,.83,.19,1.32-.07,.9-.2,1.28-.33,.72-.58,.99-.55,.49-.91,.64-.77,.23-1.22,.23Zm.06-5.63c-.33,0-.62,.06-.89,.17s-.49,.28-.68,.5-.33,.48-.44,.8-.15,.67-.15,1.07c0,.38,.05,.71,.15,1.01s.25,.56,.43,.77,.41,.38,.68,.5,.56,.17,.89,.17,.63-.06,.89-.17,.48-.27,.66-.49,.32-.47,.41-.78,.14-.66,.14-1.05c0-.81-.18-1.43-.54-1.85s-.87-.64-1.54-.64Zm-.19-1.56h-.63l1.34-1.92h.79l-1.49,1.92Z" style="fill: #777;"/>
    <path d="M237.88,106.81v-3.46c0-1.36-.49-2.03-1.48-2.03-.26,0-.5,.05-.73,.16s-.42,.25-.58,.43-.29,.4-.38,.65-.14,.52-.14,.82v3.43h-.75v-6h.75v1.04h.02c.45-.79,1.12-1.18,2.01-1.18,.66,0,1.16,.21,1.5,.64s.52,1.04,.52,1.85v3.66h-.75Z" style="fill: #777;"/>
  </g>
</svg>